<svg xmlns="http://www.w3.org/2000/svg" width="286" height="244" fill="none" viewBox="0 0 286 244">
  <path fill="#E0E0E0" d="M37.883 86.695c4.186-4.151 7.074-8.026 6.451-8.653-.622-.628-4.52 2.228-8.706 6.38-4.185 4.15-7.073 8.025-6.45 8.652.622.628 4.52-2.228 8.705-6.38zM142.347 192.103c4.186-4.152 7.236-7.863 6.813-8.289-.423-.427-4.16 2.593-8.345 6.744-4.186 4.151-7.236 7.862-6.813 8.289.423.426 4.159-2.593 8.345-6.744z"/>
  <path fill="#F55F44" d="M83.376 143.765l-3.356-5.454-18.182 11.188 3.357 5.454 18.181-11.188z"/>
  <path fill="#000" d="M66.887 156.918l6.106 3.827 11.337-18.088-6.106-3.827-11.337 18.088z" opacity=".05"/>
  <path fill="#F55F44" d="M67.566 157.344l5.427 3.401 11.337-18.088-5.427-3.402-11.337 18.089z"/>
  <path fill="url(#paint0_linear)" d="M44.713 77.666L28.798 93.45l104.855 105.722 15.915-15.785L44.713 77.666z"/>
  <path fill="#fff" d="M134.031 198.796C131.965 196.767 27.674 91.559 29.177 93.074c10.6-8.258 15.157-15.032 15.157-15.032L149.19 183.763s-7.089 6.267-15.158 15.033z"/>
  <path fill="#000" d="M98.829 132.987l-8.644-8.716-15.157 15.033 8.643 8.715 15.158-15.032z" opacity=".05"/>
  <path fill="#F55F44" d="M98.453 132.608l-7.893-7.958-15.157 15.033 7.892 7.957 15.158-15.032z"/>
  <path fill="#000" d="M96.95 131.092l-5.262-5.305-15.157 15.033 5.261 5.305 15.157-15.033z" opacity=".05"/>
  <path fill="#F55F44" d="M96.574 130.713l-4.51-4.547-15.157 15.033 4.51 4.547 15.157-15.033z"/>
  <path fill="#DBDBDB" d="M75.918 188.834a.89.89 0 10.576-1.683.89.89 0 00-.576 1.683z"/>
  <g opacity=".5">
    <path fill="#47E6B1" d="M18.365 141.92l-.863-.294-1.67 4.893.863.295 1.67-4.894z" opacity=".5"/>
    <path fill="#47E6B1" d="M19.398 145.487l.294-.864-4.893-1.67-.295.863 4.894 1.671z" opacity=".5"/>
  </g>
  <g opacity=".5">
    <path fill="#47E6B1" d="M256.8 155.176l-.863-.295-1.67 4.894.863.294 1.67-4.893z" opacity=".5"/>
    <path fill="#47E6B1" d="M257.833 158.742l.295-.863-4.894-1.67-.294.863 4.893 1.67z" opacity=".5"/>
  </g>
  <g opacity=".5">
    <path fill="#47E6B1" d="M65.106 21.933l-.863-.294-1.67 4.893.863.295 1.67-4.894z" opacity=".5"/>
    <path fill="#47E6B1" d="M66.139 25.5l.294-.864-4.893-1.67-.294.863 4.893 1.67z" opacity=".5"/>
  </g>
  <g opacity=".5">
    <path fill="#47E6B1" d="M254.18 78.116l-.863-.295-1.67 4.893.863.295 1.67-4.893z" opacity=".5"/>
    <path fill="#47E6B1" d="M255.213 81.682l.294-.863-4.893-1.67-.295.863 4.894 1.67z" opacity=".5"/>
  </g>
  <path fill="#4D8AF0" d="M35.033 74.162a1.117 1.117 0 01-.153-1.48.54.54 0 00.088-.46.56.56 0 00-.952-.242 1.118 1.118 0 01-1.48.153.539.539 0 00-.46-.088.561.561 0 00-.326.858.539.539 0 00.084.094 1.117 1.117 0 01.153 1.48.537.537 0 00-.087.46.56.56 0 00.951.242 1.118 1.118 0 011.48-.153.536.536 0 00.46.087.56.56 0 00.326-.857.543.543 0 00-.084-.094zM103.897 34.356a1.115 1.115 0 01-.153-1.479.569.569 0 00.063-.11.563.563 0 00-.495-.772.558.558 0 00-.338.096.523.523 0 00-.094.084 1.119 1.119 0 01-1.48.153.561.561 0 00-.109-.063.563.563 0 00-.648.165.559.559 0 00.055.762 1.114 1.114 0 01.153 1.48.566.566 0 00-.063.109.564.564 0 00.165.648.56.56 0 00.762-.056 1.118 1.118 0 011.48-.152c.033.025.07.046.109.063a.559.559 0 00.773-.495.565.565 0 00-.096-.338.597.597 0 00-.084-.095zM114.137 202.074a1.111 1.111 0 01-.153-1.479.593.593 0 00.063-.109.566.566 0 00-.165-.648.56.56 0 00-.668-.029.5.5 0 00-.094.084 1.115 1.115 0 01-1.48.153.56.56 0 00-.702.864 1.115 1.115 0 01.153 1.479.563.563 0 00.102.758.558.558 0 00.762-.055 1.116 1.116 0 011.48-.153.534.534 0 00.46.087.558.558 0 00.242-.952z" opacity=".5"/>
  <path fill="#F55F44" d="M230.768 204.138a1.826 1.826 0 101.178-3.457 1.826 1.826 0 00-1.178 3.457z" opacity=".5"/>
  <path fill="#4D8AF0" d="M189.04 202.107a1.825 1.825 0 101.178-3.454 1.825 1.825 0 00-1.178 3.454z" opacity=".5"/>
  <path fill="#47E6B1" d="M32.416 167.606a1.825 1.825 0 101.178-3.456 1.825 1.825 0 00-1.178 3.456z" opacity=".5"/>
  <path fill="#F55F44" d="M173.634 43.873a1.824 1.824 0 101.18-3.452 1.824 1.824 0 00-1.18 3.452z" opacity=".5"/>
  <path fill="#3BF6C9" d="M80.25 123.033l-10.445 8.004s-1.333 11.436 49.713 28.539c51.045 17.102 58.514 8.403 58.514 8.403l-4.783-17.058-22.292-29.785-70.707 1.897z"/>
  <path fill="#000" d="M80.25 123.033l-10.445 8.004s-1.333 11.436 49.713 28.539c51.045 17.102 58.514 8.403 58.514 8.403l-4.783-17.058-22.292-29.785-70.707 1.897z" opacity=".15"/>
  <path fill="#3BF6C9" d="M240.308 134.763l-104.326 9.061-96.874-77.738 117.04-11.47 41.908 39.909 1.5 1.431 40.752 38.807z"/>
  <path fill="#000" d="M240.308 136.763l-104.326 9.061-96.874-77.738 117.04-11.47 41.908 39.909 1.5 1.431 40.752 38.807z" opacity=".15"/>
  <path fill="#F5F5F5" d="M190.548 128.487l-1.762-.486 9.27-33.476 1.501 1.431-9.009 32.531z"/>
  <path fill="#3BF6C9" d="M94.567 84.855l-24.762 46.182s64.241 1.039 108.227 36.942l10.201-54.365S123.44 82.177 94.567 84.855z"/>
  <path fill="#F5F5F5" d="M186.997 138.42c4.61 1.573 9.227.272 10.312-2.908 1.085-3.179-1.772-7.032-6.382-8.606-4.61-1.573-9.227-.272-10.313 2.908-1.085 3.179 1.773 7.032 6.383 8.606z"/>
  <defs>
    <linearGradient id="paint0_linear" x1="81.225" x2="97.141" y1="146.311" y2="130.526" gradientUnits="userSpaceOnUse">
      <stop stop-color="gray" stop-opacity=".25"/>
      <stop offset=".535" stop-color="gray" stop-opacity=".12"/>
      <stop offset="1" stop-color="gray" stop-opacity=".1"/>
    </linearGradient>
  </defs>
</svg>
