<svg xmlns="http://www.w3.org/2000/svg" width="295" height="65" fill="none" viewBox="0 0 295 65">
  <path fill="#fff" d="M183.352 61.07a7.466 7.466 0 010-14.932h110.891a6.487 6.487 0 00-5.695-3.386H68.125a10.85 10.85 0 000 21.703h220.423a6.49 6.49 0 005.695-3.386H183.352z"/>
  <path fill="#fff" d="M294.391 50.252H188.959a.609.609 0 010-1.219h105.432a.61.61 0 010 1.22zM294.391 54.214H188.959a.608.608 0 110-1.22h105.432a.612.612 0 01.609.61.61.61 0 01-.609.61zM294.391 58.175H188.959a.609.609 0 010-1.22h105.432a.61.61 0 010 1.22z"/>
  <path fill="#3BF6C9" d="M154.708 40.044a7.464 7.464 0 01-5.275-12.743 7.465 7.465 0 015.275-2.188H265.6a6.494 6.494 0 00-5.696-3.386H39.481a10.85 10.85 0 000 21.703h220.423a6.496 6.496 0 005.696-3.386H154.708z"/>
  <path fill="#fff" d="M265.747 29.227H160.315a.61.61 0 010-1.22h105.432a.608.608 0 110 1.22zM265.747 33.188H160.315a.608.608 0 110-1.219h105.432a.608.608 0 110 1.219zM265.747 37.15H160.315a.61.61 0 010-1.22h105.432a.61.61 0 110 1.22zM126.065 18.317a7.466 7.466 0 010-14.931h110.892A6.49 6.49 0 00231.261 0H10.838a10.85 10.85 0 00-7.663 18.518 10.857 10.857 0 007.663 3.185h220.423a6.489 6.489 0 005.696-3.386H126.065z"/>
  <path fill="#fff" d="M237.104 7.5H131.672a.608.608 0 010-1.22h105.432a.612.612 0 01.609.61.61.61 0 01-.609.61zM237.104 11.46H131.672a.614.614 0 01-.431-.178.603.603 0 010-.862.61.61 0 01.431-.178h105.432a.607.607 0 01.609.61.62.62 0 01-.178.43.616.616 0 01-.431.179zM237.104 15.422H131.672a.608.608 0 110-1.219h105.432a.607.607 0 01.609.61.62.62 0 01-.178.43.616.616 0 01-.431.18z"/>
</svg>
