<svg xmlns="http://www.w3.org/2000/svg" width="245" height="103" fill="none" viewBox="0 0 245 103">
  <path fill="#3F3D56" d="M0 102.865h181.727c34.425 0 62.333-19.63 62.333-54.07S216.152 0 181.727 0h-57.061C55.815 0 0 33.984 0 102.865z"/>
  <path fill="#3BF6C9" d="M90 35H71v2h19v-2zM115 35H96v2h19v-2zM151 50h-19v2h19v-2zM177 50h-19v2h19v-2zM177 35h-55v2h55v-2zM126 50H71v2h55v-2zM126 65H71v1h55v-1zM177 65h-39v1h39v-1zM65.666 42L59 35l6.666-7L67 29.4 61.667 35 67 40.6 65.666 42zM195.334 73L194 71.6l5.333-5.6L194 60.4l1.334-1.4L202 66l-6.666 7zM188.099 59.063l-3.935 12.985 1.8.546 3.935-12.985-1.8-.546z"/>
</svg>
